<?xml version="1.0" encoding="iso-8859-1"?>
<!-- Generator: Adobe Illustrator 19.0.0, SVG Export Plug-In . SVG Version: 6.00 Build 0)  -->
<svg version="1.1" id="Layer_1" xmlns="http://www.w3.org/2000/svg" xmlns:xlink="http://www.w3.org/1999/xlink" x="0px" y="0px"
	 viewBox="0 0 512.117 512.117" style="enable-background:new 0 0 512.117 512.117;" xml:space="preserve">
<g>
	<g>
		<path style="fill:#C6564E;" d="M293.054,341.122c0.415-0.98,0.847-1.96,1.289-2.931c1.774-3.919,3.681-7.786,5.87-11.511
			c1.209,4.634,2.631,9.154,4.202,13.542c0.026,0.062,0.044,0.132,0.071,0.194c1.58,4.405,3.302,8.669,5.102,12.738
			c11.37,25.715,25.777,43.944,25.918,44.12c-0.018-0.106-0.035-0.194,0.018,0.026c-2.41-15.554-3.231-30.234-2.71-44.138v-0.009
			c0.23-6.312,3.681-31.391,4.891-36.555c0.106-0.433,0.194-0.883,0.3-1.315c2.798-11.591,6.647-22.493,11.396-32.742h-84.577
			v70.621h23.746C289.832,349.076,291.385,345.068,293.054,341.122"/>
		<path style="fill:#C6564E;" d="M335.523,397.299l-0.018-0.018C335.532,397.405,335.567,397.564,335.523,397.299"/>
	</g>
	<path style="fill:#F0CE49;" d="M467.862,273.713c-4.078,36.988-26.483,70.621-26.483,70.621c0-84.78-35.31-132.414-35.31-132.414
		c-50.132,39.998-83.783,100.043-70.541,185.379c0.071,0.486-0.115-0.486,0,0c0,0-25.185-31.7-35.31-70.621
		c-26.209,44.694-23.296,104.51,11.988,144.702c47.263,53.848,130.842,54.237,178.626,1.156
		C531.791,427.048,507.842,314.541,467.862,273.713"/>
	<path style="fill:#ED7161;" d="M88.276,70.679H0V17.713C0,7.959,7.901,0.058,17.655,0.058h70.621V70.679z"/>
	<polygon style="fill:#D75A4A;" points="88.276,70.679 264.828,70.679 264.828,0.058 88.276,0.058 	"/>
	<path style="fill:#C6564E;" d="M406.069,70.679H264.828V0.058h123.586c9.754,0,17.655,7.901,17.655,17.655V70.679z"/>
	<polygon style="fill:#D75A4A;" points="317.793,141.299 406.069,141.299 406.069,70.679 317.793,70.679 	"/>
	<polygon style="fill:#ED7161;" points="141.241,141.299 317.793,141.299 317.793,70.679 141.241,70.679 	"/>
	<polygon style="fill:#BA4D45;" points="0,141.299 141.241,141.299 141.241,70.679 0,70.679 	"/>
	<polygon style="fill:#D75A4A;" points="0,211.92 88.276,211.92 88.276,141.299 0,141.299 	"/>
	<polygon style="fill:#C6564E;" points="88.276,211.92 264.828,211.92 264.828,141.299 88.276,141.299 	"/>
	<polygon style="fill:#BA4D45;" points="264.828,211.92 406.069,211.92 406.069,141.299 264.828,141.299 	"/>
	<polygon style="fill:#D75A4A;" points="141.241,282.541 317.793,282.541 317.793,211.92 141.241,211.92 	"/>
	<polygon style="fill:#ED7161;" points="0,282.541 141.241,282.541 141.241,211.92 0,211.92 	"/>
	<polygon style="fill:#C6564E;" points="0,353.161 88.276,353.161 88.276,282.541 0,282.541 	"/>
	<polygon style="fill:#BA4D45;" points="88.276,353.161 264.828,353.161 264.828,282.541 88.276,282.541 	"/>
	<path style="fill:#ED7161;" d="M0,353.161h141.241v70.621H17.655C7.901,423.782,0,415.881,0,406.127V353.161z"/>
	<path style="fill:#D75A4A;" d="M288.573,353.161H141.24v70.621h145.858C280.972,400.698,281.511,376.007,288.573,353.161"/>
	<path style="fill:#ED7161;" d="M406.069,211.92h-88.276v70.621h31.603C362.522,254.195,382.42,230.793,406.069,211.92"/>
</g>
<g>
</g>
<g>
</g>
<g>
</g>
<g>
</g>
<g>
</g>
<g>
</g>
<g>
</g>
<g>
</g>
<g>
</g>
<g>
</g>
<g>
</g>
<g>
</g>
<g>
</g>
<g>
</g>
<g>
</g>
</svg>
